<svg width="186" height="186" version="1.1" xmlns="http://www.w3.org/2000/svg">
  <g transform="matrix(1.25 0 0 -1.25 -267.56 591.99)">
    <g transform="matrix(.99932 0 0 .99932 268.1 383.36)" style="fill:#0d597f">
      <path d="m0 0v15.687l-11.296-11.308c1.217-.847 2.364-1.543 3.443-2.109 1.079-.567 2.089-1.005 3.03-1.338.941-.334 1.814-.562 2.617-.71.804-.147 1.539-.213 2.206-.222m57.751 1.304c.02-.017.13-.11.333-.239.204-.13.502-.297.898-.462.395-.164.889-.327 1.485-.448.596-.122 1.294-.202 2.098-.202.671 0 1.411.059 2.222.2.812.142 1.693.367 2.645.699.953.333 1.976.773 3.07 1.344 1.094.572 2.259 1.276 3.495 2.136l-8.572 8.397-28.41 28.516-12.466-12.469-16.816 17.341-42.204-41.727c1.235-.86 2.398-1.564 3.491-2.136 1.093-.571 2.115-1.011 3.067-1.344.951-.332 1.832-.557 2.643-.698.81-.142 1.55-.201 2.22-.201.804 0 1.502.08 2.097.202.596.121 1.089.284 1.485.449.396.164.693.331.897.461s.314.223.334.24l19.052 19.052 6.813 6.533 18.866-18.866 6.591-6.778c.02-.017.13-.11.334-.239.204-.13.501-.297.897-.462.396-.164.89-.327 1.485-.448.596-.122 1.295-.202 2.099-.202.67 0 1.411.059 2.222.2.811.142 1.693.367 2.645.699.952.333 1.975.773 3.069 1.344 1.094.572 2.259 1.276 3.495 2.136l-15.139 14.825 2.818 2.818 13.101-13.101 7.64-7.57m-.163 79.016 37.219-64.482-37.219-64.482h-74.463l-37.219 64.482 37.219 64.482z" style="fill:#0d597f"/>
    </g>
    <g transform="matrix(.99932 0 0 .99932 302.54 402.23)" style="fill:#0d597f">
      <path d="m0 0-9.913 9.895.705.709 9.983-9.874z" style="fill:#0d597f"/>
    </g>
  </g>
</svg>
