<?xml version="1.0" encoding="UTF-8" standalone="no"?>
<svg id="svg2424" xmlns="http://www.w3.org/2000/svg" height="70" width="70" version="1.0" xmlns:xlink="http://www.w3.org/1999/xlink">
 <defs id="defs2426">
  <linearGradient id="linearGradient2187" y2="303.14" gradientUnits="userSpaceOnUse" x2="606.91" gradientTransform="matrix(-.39377 0 0 .39375 987.26 408.08)" y1="104.51" x1="541.34">
   <stop id="stop193" stop-color="#ffffff" stop-opacity="0" offset="0"/>
   <stop id="stop195" stop-color="#ffffff" stop-opacity=".27451" offset="1"/>
  </linearGradient>
 </defs>
 <g id="layer1" transform="translate(-269.52 -259.6)">
  <g id="g2424" transform="matrix(1.3474 0 0 1.3474 -632.88 -513.34)">
   <g id="g2210" fill-rule="evenodd" transform="matrix(.25 0 0 .25 502.31 469.22)">
    <path id="path2518" d="m773.66 426.72c-8.4571 20.735-13.592 34.317-23.008 54.435 5.7731 6.1195 12.868 13.22 24.376 21.268-12.372-5.0911-20.806-10.189-27.113-15.493-12.05 25.145-30.942 60.949-69.255 129.79 30.105-17.38 53.443-28.1 75.193-32.192-.93052-4.011-1.4276-8.37-1.3916-12.896l.0232-.95093c.47782-19.292 10.516-34.127 22.405-33.12 11.888 1.0073 21.143 17.469 20.665 36.761-.09 3.6339-.51248 7.1256-1.2292 10.367 21.516 4.2106 44.634 14.883 74.335 32.03-5.8573-10.784-11.104-20.499-16.096-29.757-7.8643-6.0954-16.063-14.025-32.795-22.614 11.501 2.9884 19.744 6.444 26.162 10.298-50.77-94.51-54.87-107.07-72.27-147.92z" fill="#1793d1"/>
    <path id="path2522" d="m827.13 539.65c-41.181-55.895-50.727-100.94-53.145-111.7 21.967 50.669 21.817 51.29 53.145 111.7z" fill-opacity=".16568" fill="#ffffff"/>
    <path id="path2520" d="m774.03 427.46c-1.0681 2.6257-2.0757 5.1857-3.0615 7.6074-1.0812 2.6558-2.1325 5.2145-3.1543 7.7002-1.0218 2.4858-2.0576 4.842-3.0615 7.2363-1.004 2.3945-1.9411 4.7617-2.9688 7.1436-1.0276 2.3818-2.1543 4.7884-3.2471 7.2363-1.0927 2.448-2.2334 4.9218-3.4326 7.5146-1.1994 2.5928-2.4564 5.3477-3.8037 8.1641-.18273.38196-.37075.81915-.55664 1.206 5.7576 6.0989 12.856 13.144 24.307 21.152-12.372-5.0911-20.783-10.189-27.09-15.493-.32869.67104-.58906 1.261-.92774 1.9482-1.2472 2.5846-2.5844 5.1441-3.9892 7.9785-.33495.66595-.58339 1.2666-.92774 1.9482-1.485 2.9804-3.0457 6.0652-4.7314 9.3701-.33426.65055-.6781 1.191-1.0205 1.8555-1.0203 1.9796-4.2749 8.2232-7.6074 14.565-1.9432 3.7049-3.4689 6.7399-5.6592 10.854-.62086 1.182-1.8984 3.5479-2.2266 4.1748 24.121-13.578 50.143-33.299 97.412-16.421-2.3671-4.4832-4.636-8.6644-6.6797-12.617-2.0437-3.9529-3.8961-7.6323-5.6592-11.133-1.763-3.5004-3.3921-6.8007-4.917-9.9268-1.5249-3.126-2.9383-6.0765-4.2676-8.9062s-2.6275-5.5526-3.8037-8.1641c-1.1763-2.6114-2.2739-5.1364-3.3398-7.6074-1.0661-2.4712-2.0634-4.9204-3.0615-7.3291-.99823-2.4088-1.9959-4.719-2.9688-7.1436-.42343-1.055-.78165-2.1785-1.2061-3.2471-2.6356-6.1897-5.2236-12.325-8.3496-19.668z" fill="url(#linearGradient2187)"/>
   </g>
  </g>
 </g>
</svg>
