<svg width="210" height="210" version="1.1" viewBox="0 0 210 210" xmlns="http://www.w3.org/2000/svg"><title>Fedora logo (2021)</title><path d="m105.05 4.555c-56.53 0-102.3 44.93-102.4 100.4h-.01809v77.72h.01809c.02713 12.58 10.43 22.77 23.26 22.77h79.15c56.54-.0355 102.3-44.96 102.3-100.4 8e-5-55.47-45.82-100.4-102.4-100.4zm20.8 41.342c17.19 0 33.42 12.91 33.42 30.72 0 1.652.01 3.305-.2653 5.178-.4763 4.738-4.891 8.143-9.698 7.475-4.807-.6758-8.069-5.153-7.18-9.837.0815-.5346.1105-1.374.1105-2.817 0-10.1-8.425-14-16.39-14-7.963 0-15.14 6.568-15.15 14 .1376 8.593 0 17.12 0 25.7l14.78-.1084c11.54-.2344 11.67 16.81.1331 16.73l-14.91.1084c-.0361 6.912.0543 5.662.0181 9.143 0 0 .125 8.454-.1322 14.86-1.784 18.82-18.12 33.86-37.75 33.86-20.81 0-37.95-16.68-37.95-37.14.6248-21.04 17.73-37.59 39.28-37.4l12.02-.0888v16.7l-12.02.1083h-.06342c-11.84.3437-21.99 8.232-22.18 20.67 0 11.33 9.334 20.41 20.92 20.41 11.57 0 20.83-8.257 20.83-20.39l-.01808-63.25c.006-1.174.04525-2.107.1766-3.402 1.953-15.47 16.06-27.26 32.03-27.26z" style="fill:#51a2da"/></svg>
