<?xml version="1.0" encoding="UTF-8" standalone="no"?>
<svg id="svg8" xmlns="http://www.w3.org/2000/svg" height="184.7mm" width="177.34mm" version="1.1" xmlns:xlink="http://www.w3.org/1999/xlink" viewBox="0 0 177.33781 184.70433">
 <defs id="defs2">
  <linearGradient id="linearGradient3004">
   <stop id="stop3006" stop-color="#ffffff" offset="0"/>
   <stop id="stop7609" stop-color="#ffffff" offset=".34214"/>
   <stop id="stop7599" stop-color="#bebdf3" offset=".51998"/>
   <stop id="stop7611" stop-color="#8f82f9" offset=".75409"/>
   <stop id="stop7613" stop-color="#9f99c7" offset=".87114"/>
   <stop id="stop3008" stop-color="#524c76" offset="1"/>
  </linearGradient>
  <linearGradient id="linearGradient2986" y2="269.71" xlink:href="#linearGradient3004" gradientUnits="userSpaceOnUse" y1="697.44" gradientTransform="matrix(1.2371 0 0 1.2371 -161.09 -377.34)" x2="368.62" x1="464.02"/>
  <linearGradient id="linearGradient2994" y2="1340.6" xlink:href="#linearGradient3004" gradientUnits="userSpaceOnUse" y1="-313.52" gradientTransform="matrix(1.2371 0 0 1.2371 -1037.4 -1010.4)" x2="1099.7" x1="783.86"/>
  <radialGradient id="radialGradient3228" gradientUnits="userSpaceOnUse" xlink:href="#linearGradient3004" cx="332.72" cy="590.59" r="218.02" gradientTransform="matrix(-.066040 4.1903 -3.5738 -.056268 2168.2 -1171.4)"/>
  <radialGradient id="radialGradient5851" cx="49.53" xlink:href="#linearGradient3004" gradientUnits="userSpaceOnUse" cy="320.09" r="31.949" gradientTransform="matrix(3.2874 0 0 2.5197 111.69 -642.72)"/>
 </defs>
 <g id="layer1" transform="translate(-8.8489 .21526)">
  <g id="g918" transform="matrix(.26458 0 0 .26458 16.203 7.1389)">
   <g id="layer2" transform="translate(-15.691 -15.521)">
    <path id="path2973" d="m25.757 521.91c.068-26.26 22.392-62.92 54.112-96.23 21.201-22.26 42.731-41.8 89.661-81.81-32.47-17.81-82.955-39.31-108.29-67.45-9.371-10.42-26.361-34.01-23.066-65.53 6.717-64.25 86.016-161.75 198.74-182.36 37.504-6.8587 80.564-1.9078 116 14.025 111.18 49.984 247.15 174.16 263.88 234.79 5.8884 21.342 4.7566 55.36-5.3948 74.32-12.581 23.498-56.136 71.225-115.72 120.47-93.499 77.274-224.52 160.25-322.35 174.21-31.611 4.5114-63.908-.19399-86.572-12.983-35.481-20.01-47.252-46.72-51.39-54.73-11.003-21.29-9.637-48.27-9.613-56.73zm263.14-295.04c1.2074-14.889 59.593-.0658 55.904 11.725-3.892 12.44-57.289 5.3554-55.904-11.725z" fill-rule="evenodd" fill="url(#linearGradient2994)"/>
   </g>
   <g id="layer4" fill-rule="evenodd" transform="translate(-15.691 -15.521)">
    <path id="path2975" d="m201.13 319.26c-30.73 25.95-51.16 43.44-76.77 66.85-61.674 56.37-103.58 99.27-81.975 157.93 24.923 67.66 79.555 64.23 143.62 51.65 165.14-32.57 436.6-241.26 422.76-318.34-11.19-62.37-162.85-186.38-252.65-230.5-28.05-13.786-60.38-20.916-92.8-19.39-123.48 5.828-219.9 118.24-214.97 179.15 4.788 59.26 154.55 110.89 152.79 112.65zm-18.54-206.86c-37.153 41.336-13.399 121.31 48.215 164.9 72.095 51.007 188.84 60.243 212.08 20.906 43.335-73.373-3.9803-150.96-74.611-185.56-69.795-34.199-162.52-26.012-185.68-.24497z" fill="url(#linearGradient2986)"/>
    <path id="path4976" d="m309.3 275.57c52.159 7.2499 97.117-13.639 104.15-65.143 5.3554-39.234-54.689-82.1-90.79-91.987-30.146-8.2561-95.595 2.3603-100.01 59.378-4.5868 59.272 56.237 93.525 86.65 97.752zm-25.543-98.581c-34.279 53.104 49.77 69.43 62.638 59.746 55.477-41.753-47.536-83.142-62.638-59.746z" fill="url(#radialGradient5851)"/>
   </g>
   <g id="layer5" transform="translate(-15.691 -15.521)">
    <path id="path2977" d="m253.35 41.57c-60.63 6.39-72.24 14.194-127.17 55.753-18.41 13.927-52.297 47.817-60.978 88.027-3.3065 15.313.60194 28.533 11.63 37.804 35.313 29.688 94.416 53.774 142.9 77.057 14.202 6.8196 4.7987 19.185-18.104 39.013-57.792 50.032-135.93 110.93-141.38 157.34-2.5704 21.868 4.9161 51.583 31.459 66.79 31.007 17.764 95.372 6.1696 138.35-9.835 62.806-23.388 145.31-75.004 210.81-125.74 68.11-52.76 131.44-119.77 134.57-130.7 3.8467-13.421 3.4632-25.818-3.9604-40.071-11.66-22.38-27.25-39.01-43.98-57.62-44.9-47.34-92.41-88.94-149.26-120.81-41.04-23.023-77.16-42.03-124.89-37zm89.068 106.13c43.805 21.179 88.79 76.807-.39035 108.82-24.25 8.7064-101.16-21.382-98.804-62.444 3.4332-60.656 45.707-72.24 99.194-46.381z" fill-rule="evenodd" fill="url(#radialGradient3228)"/>
   </g>
  </g>
 </g>
</svg>
