<?xml version="1.0" encoding="UTF-8" standalone="no"?>
<svg id="svg9247" xmlns="http://www.w3.org/2000/svg" height="220" width="220" version="1.1">
 <g id="layer1" transform="translate(-125 -515.28)">
  <g id="g5423" fill="#2397d4" transform="translate(41.792 3.9558)">
   <path id="path3042-0-6-4" d="m177.89 597.13h-.01c-6.6729 0-12.107-5.4267-12.114-12.095-.01-6.6905 5.4251-12.125 12.104-12.132 6.683 0 12.116 5.4267 12.124 12.095 0 6.6905-5.4251 12.126-12.104 12.133z"/>
   <path id="path3056-6-4-1" d="m210.61 588.24c-6.2309 0-11.302-5.0662-11.307-11.292-.01-6.242 5.0612-11.316 11.296-11.321 6.2392 0 11.311 5.0651 11.317 11.291 0 6.242-5.0622 11.316-11.296 11.323h-.01z"/>
   <circle id="path4104" cx="-17" transform="matrix(1.4422 0 0 1.4422 215.72 578.6)" cy="-15.701" r="7"/>
   <circle id="path4106" cx="82.5" transform="matrix(.80761 0 0 .80761 140.73 552.34)" cy="-16.522" r="11.5"/>
   <circle id="path4132" transform="matrix(.76915 0 0 .76915 187.19 551.3)" cy="-37.522" r="10.5"/>
  </g>
  <path id="path3347-1" style="color:#000000;text-indent:0;text-decoration-line:none;text-transform:none" d="m185.93 612c-10.45 13.54-18.93 28.78-18.93 47.23 0 40.006 30.358 73 68 73 37.64 0 68-32.993 68-73 0-18.461-8.4889-33.212-19.53-47.238-4.1402-4.3446-10.118-3.6986-14.469-.91856-12.733 6.5886-19.606 9.2209-34.001 9.1565-13.922-.0624-21.237-2.336-33.97-9.2774-4.3514-2.6592-10.964-3.3052-15.104 1.0394zm9.07 11.23c13.198 7.2975 24.969 11 40 11 15.044 0 26.795-3.7025 40-11 7.2055 10.16 14 22.758 14 36 0 32.801-24.175 59-54 59-29.826 0-55-26.199-55-59 0-13.225 7.7788-25.832 15-36z" fill="#262f45"/>
 </g>
</svg>
