<svg width="535.19" height="464.29" version="1.1" viewBox="0 0 501.74 435.28" xmlns="http://www.w3.org/2000/svg" xmlns:xlink="http://www.w3.org/1999/xlink"><defs><linearGradient id="linearGradient5384" x1="200.6" x2="290.09" y1="351.41" y2="506.19" gradientTransform="translate(70.65,-1055.2)" gradientUnits="userSpaceOnUse"><stop style="stop-color:#699ad7" offset="0"/><stop style="stop-color:#7eb1dd" offset=".24345"/><stop style="stop-color:#7ebae4" offset="1"/></linearGradient><linearGradient id="linearGradient5386" x1="-584.2" x2="-496.3" y1="782.34" y2="937.71" gradientTransform="translate(864.7,-1491.3)" gradientUnits="userSpaceOnUse"><stop style="stop-color:#415e9a" offset="0"/><stop style="stop-color:#4a6baf" offset=".23169"/><stop style="stop-color:#5277c3" offset="1"/></linearGradient></defs><g transform="translate(-23.757 -24.714)" style="display:none"><rect transform="translate(-132.58 958.04)" x="132.58" y="-957.78" width="1543.4" height="483.74" style="color-rendering:auto;color:#000000;display:inline;fill-rule:evenodd;fill:#ffffff;image-rendering:auto;isolation:auto;mix-blend-mode:normal;shape-rendering:auto;solid-color:#000000"/></g><g transform="translate(-156.34 933.33)" style="display:none;opacity:.516"><rect x="132.58" y="-957.78" width="1543.4" height="483.74" style="color-rendering:auto;color:#000000;display:inline;fill-rule:evenodd;fill:#d4d4d4;image-rendering:auto;isolation:auto;mix-blend-mode:normal;opacity:1;shape-rendering:auto;solid-color:#000000"/><rect x="155.78" y="-933.39" width="1496.4" height="435.68" style="color-rendering:auto;color:#000000;display:inline;fill-rule:evenodd;fill:#9b9b9b;image-rendering:auto;isolation:auto;mix-blend-mode:normal;opacity:1;shape-rendering:auto;solid-color:#000000"/><rect x="159.03" y="-851.66" width="1492.6" height="272.58" style="color-rendering:auto;color:#000000;display:inline;fill-rule:evenodd;fill:#848484;image-rendering:auto;isolation:auto;mix-blend-mode:normal;opacity:1;shape-rendering:auto;solid-color:#000000"/></g><g transform="translate(-156.34 933.33)" style="display:none"><rect x="132.65" y="-958.03" width="550.42" height="484.3" style="color-rendering:auto;color:#000000;display:inline;fill-rule:evenodd;fill:#5c201e;image-rendering:auto;isolation:auto;mix-blend-mode:normal;shape-rendering:auto;solid-color:#000000"/><rect x="156.12" y="-933.03" width="501.94" height="434.3" style="color-rendering:auto;color:#000000;display:inline;fill-rule:evenodd;fill:#c24a46;image-rendering:auto;isolation:auto;mix-blend-mode:normal;shape-rendering:auto;solid-color:#000000"/><rect x="658.03" y="-958.04" width="24.94" height="24.94" style="color-rendering:auto;color:#000000;display:inline;fill-rule:evenodd;fill:#d98d8a;image-rendering:auto;isolation:auto;mix-blend-mode:normal;shape-rendering:auto;solid-color:#000000"/></g><g transform="matrix(.93453 0 0 .93453 -129.74 886.54)"><path id="path3336-6" d="m309.55-710.39 122.2 211.68-56.157.5268-32.624-56.869-32.856 56.565-27.902-.011-14.291-24.69 46.81-80.49-33.229-57.826z" style="fill-rule:evenodd;fill:url(#linearGradient5384)"/><use transform="rotate(60,407.11,-715.79)" width="100%" height="100%" xlink:href="#path3336-6"/><use transform="rotate(-60,407.31,-715.7)" width="100%" height="100%" xlink:href="#path3336-6"/><use transform="rotate(180,407.42,-715.76)" width="100%" height="100%" xlink:href="#path3336-6"/><path id="path4260-0" d="m309.55-710.39 122.2 211.68-56.157.5268-32.624-56.869-32.856 56.565-27.902-.011-14.291-24.69 46.81-80.49-33.229-57.826z" style="color-rendering:auto;color:#000000;fill-rule:evenodd;fill:url(#linearGradient5386);image-rendering:auto;isolation:auto;mix-blend-mode:normal;shape-rendering:auto;solid-color:#000000"/><use transform="rotate(120,407.34,-716.08)" width="100%" height="100%" xlink:href="#path4260-0"/><use transform="rotate(240 407.29 -715.87)" width="100%" height="100%" xlink:href="#path4260-0"/></g></svg>
