<?xml version="1.0" encoding="UTF-8"?>
<!-- Created with Inkscape (http://www.inkscape.org/) -->
<svg width="256" height="256" version="1.0" xmlns="http://www.w3.org/2000/svg" xmlns:cc="http://creativecommons.org/ns#" xmlns:dc="http://purl.org/dc/elements/1.1/" xmlns:rdf="http://www.w3.org/1999/02/22-rdf-syntax-ns#" xmlns:xlink="http://www.w3.org/1999/xlink">
 <defs>
  <pattern id="pattern13210" patternTransform="translate(-298.35 240.87)" xlink:href="#pattern8174"/>
  <filter id="filter21800" x="-.014642" y="-.02242" width="1.0293" height="1.0448">
   <feGaussianBlur stdDeviation="0.42580173"/>
  </filter>
  <filter id="filter27770" x="-.080923" y="-.1457" width="1.1219" height="1.4274">
   <feGaussianBlur stdDeviation="1.2812499"/>
  </filter>
  <pattern id="pattern8174" width="3.2504171" height="2.7860718" patternTransform="translate(-298.35 240.87)" patternUnits="userSpaceOnUse">
   <g transform="matrix(.033168 0 0 .033168 21.891 -5.3731)">
    <rect x="-658" y="162" width="32" height="28" opacity=".99"/>
    <rect x="-626" y="190" width="32" height="28" opacity=".99"/>
    <rect x="-594" y="162" width="32" height="28" opacity=".99"/>
    <rect x="-594" y="218" width="32" height="28" opacity=".99"/>
    <rect x="-660" y="218" width="32" height="28" opacity=".99"/>
   </g>
  </pattern>
  <filter id="filter10137" x="-.10809" y="-.081266" width="1.2162" height="1.1625">
   <feGaussianBlur stdDeviation="3.1826429"/>
  </filter>
  <linearGradient id="linearGradient13206" x1="127.32" x2="127.32" y1="16.178" y2="119.03" gradientTransform="matrix(1.9254 0 0 2.4249 -118.53 -149.31)" gradientUnits="userSpaceOnUse">
   <stop stop-color="#fff" offset="0"/>
   <stop stop-color="#fff" stop-opacity="0" offset="1"/>
  </linearGradient>
  <linearGradient id="linearGradient13241" x1="124.39" x2="122.35" y1="131.96" y2="92.974" gradientTransform="matrix(1.4156 0 0 1.4156 -21.561 -74.596)" gradientUnits="userSpaceOnUse">
   <stop offset="0"/>
   <stop stop-opacity="0" offset="1"/>
  </linearGradient>
 </defs>
 <metadata>
  <rdf:RDF>
   <cc:Work rdf:about="">
    <dc:format>image/svg+xml</dc:format>
    <dc:type rdf:resource="http://purl.org/dc/dcmitype/StillImage"/>
   </cc:Work>
  </rdf:RDF>
 </metadata>
 <g>
  <path transform="matrix(2.4207 0 0 3.2759 -109.3 -158.54)" d="m149.91 88.062a51.972 33.941 0 11-103.94 0 51.972 33.941 0 11103.94 0z" fill="#7b7b7b" filter="url(#filter21800)" opacity=".99" stroke="#8f8f8f" stroke-linejoin="round"/>
  <path transform="matrix(2.1041 0 0 2.3375 -142.62 -185.36)" d="m187.86 131.54a59.643 48.036 0 11-119.29 0 59.643 48.036 0 11119.29 0z" fill="#3e5495" opacity=".99" stroke="#3d5292" stroke-linejoin="round" stroke-width=".90182"/>
  <path transform="matrix(1.9558 0 0 1.968 -120.12 -114.02)" d="m189.29 116.71a63.214 53.929 0 11-126.43 0 63.214 53.929 0 11126.43 0z" fill="#4962ae" opacity=".99"/>
 </g>
 <g transform="matrix(1.0528 0 0 1 -1.5788 0)">
  <g transform="matrix(1.5448 0 0 1.2972 338.45 -79.327)" fill="#fff0ff" filter="url(#filter10137)" stroke="#fff0ff" stroke-width="5" aria-label="S">
   <g stroke="none">
    <path d="m-158.89 176.15c7.056 3.168 13.536 4.896 20.736 4.896 19.728 0 32.4-10.512 32.4-26.064 0-13.248-8.352-21.168-24.768-23.328l-11.232-1.44c-10.8-1.44-16.128-5.616-16.128-12.672 0-8.928 7.632-15.264 19.152-15.264 7.488 0 13.536 2.88 16.56 7.344s2.16 9.648 7.776 9.648c3.312 0 5.328-1.872 5.328-5.184v-.72l-1.008-14.688c-.288-3.744-.72-5.328-5.76-5.328-3.168 0-4.464.864-4.464 3.6-6.48-2.592-12.096-4.176-17.856-4.176-18.144 0-31.104 11.376-31.104 25.344 0 14.112 9.216 20.88 27.936 23.472l10.368 1.44c8.928 1.296 13.68 5.904 13.68 13.248 0 8.64-7.92 15.264-20.448 15.264-10.08 0-17.424-4.032-20.448-10.224-2.592-5.184-1.872-10.656-7.776-10.656-4.32 0-5.472 2.016-5.472 6.048v1.44l.864 16.272c.288 5.04 2.016 7.344 6.048 7.344 3.888 0 5.184-1.44 5.616-5.616z" color="#000000" style="-inkscape-stroke:none"/>
    <path d="m-138.16 90.271c-19.189 0-33.604 12.329-33.604 27.844 0 7.6002 2.6652 13.76 7.8692 17.996 5.204 4.2358 12.625 6.6242 22.223 7.9531l10.352 1.4375c4.1095.59655 6.997 1.9228 8.8086 3.6777 1.8116 1.755 2.7305 3.9629 2.7305 7.0957 0 3.5561-1.5405 6.5684-4.5527 8.8926s-7.5712 3.8711-13.395 3.8711c-9.4133 0-15.69-3.678-18.201-8.8203l-.006-.01-.004-.0117c-1.0972-2.1945-1.5158-4.6968-2.5918-7.1562-.538-1.2297-1.3124-2.5075-2.5938-3.4551s-2.966-1.4258-4.8281-1.4258c-2.5489 0-4.8613.68998-6.2871 2.4258-1.4258 1.7358-1.6836 3.867-1.6836 6.1211v1.5078l.86719 16.342v.006c.159 2.7827.68494 5.1458 2.1699 6.9883 1.485 1.8425 3.8828 2.7129 6.375 2.7129 2.2526 0 4.3881-.46036 5.8887-1.9922.75937-.77519 1.252-1.6794 1.5879-2.6797 6.2263 2.4935 12.291 3.9531 18.875 3.9531 10.308 0 18.993-2.7444 25.174-7.7598 6.1804-5.0154 9.7266-12.35 9.7266-20.805 0-7.1494-2.359-13.249-7.0137-17.641s-11.384-7.0416-19.93-8.166l-.004-.002-11.236-1.4394c-5.1312-.68592-8.7396-2.0308-10.887-3.7168-2.1493-1.6877-3.0586-3.5778-3.0586-6.4766 0-3.7516 1.5129-6.7644 4.3262-9.0332 2.8133-2.2688 7.0245-3.7305 12.326-3.7305 6.847 0 12.054 2.6502 14.49 6.2461 1.198 1.7684 1.6726 3.9074 2.7188 6.1524.5231 1.1225 1.2571 2.3249 2.4863 3.2285 1.2292.90363 2.852 1.3652 4.6406 1.3652 2.127 0 4.168-.63392 5.6387-2.0469 1.4706-1.413 2.1894-3.4735 2.1894-5.6367v-.80664l-1.0156-14.783v-.0098c-.14927-1.9404-.23099-3.8733-1.7285-5.5449-1.4975-1.6717-3.7415-2.0918-6.5234-2.0918-1.8113 0-3.4894.16597-4.9512 1.2988-.54816.42482-.85507 1.029-1.166 1.623-5.5806-2.0571-10.826-3.498-16.203-3.498zm0 5c5.3017 0 10.584 1.4606 16.928 3.998l3.4277 1.3711v-3.6934c0-.97326.0979-.86647.0762-.84961-.0217.01686.53195-.25 1.8887-.25 2.2581 0 2.7484.3714 2.7988.42774.0503.0562.32774.79151.4668 2.5859.00032.0042.002.0017.002.0059l1 14.582v.63476c0 1.1488-.28892 1.6802-.6543 2.0312-.36537.35105-.98884.65235-2.1738.65235-1.0194 0-1.395-.18666-1.6777-.39453-.28277-.20788-.57512-.57904-.91601-1.3106-.6818-1.463-1.2873-4.1482-3.1133-6.8438-3.612-5.3321-10.5-8.4434-18.629-8.4434-6.2183 0-11.582 1.7067-15.465 4.8379-3.8827 3.1312-6.1875 7.7494-6.1875 12.926 0 4.1572 1.756 7.8858 4.9707 10.41s7.6657 3.9855 13.326 4.7402l.008.002 11.238 1.4394h-.01c7.8705 1.0356 13.525 3.4253 17.15 6.8457 3.6254 3.4204 5.4453 7.9053 5.4453 14.004 0 7.097-2.7913 12.793-7.8789 16.922-5.0876 4.1286-12.602 6.6426-22.021 6.6426-6.8 0-12.869-1.6049-19.713-4.6777l-3.1543-1.416-.35547 3.4394c-.19269 1.8627-.58507 2.6506-.8125 2.8828s-.68105.49023-2.3164.49023c-1.5398 0-2.0234-.28008-2.4824-.84961-.45902-.56952-.94133-1.8794-1.0703-4.1367l-.85937-16.195v-1.375c0-1.7779.31671-2.6671.54687-2.9473.23017-.2802.65272-.59961 2.4238-.59961 1.0898 0 1.5304.2049 1.8555.44531s.64037.65511.98438 1.4414c.68753 1.5715 1.2068 4.3936 2.6992 7.3809.001.002.00094.004.002.006 3.5429 7.2285 11.948 11.605 22.684 11.605 6.7046 0 12.369-1.7643 16.449-4.9121s6.498-7.7677 6.498-12.852c0-4.2112-1.4556-7.9785-4.252-10.688-2.7964-2.709-6.7499-4.3338-11.568-5.0332l-.008-.002-10.375-1.4414h-.002c-9.1224-1.2631-15.668-3.5547-19.752-6.8789-4.084-3.3242-6.0254-7.6054-6.0254-14.117 0-12.422 11.505-22.844 28.604-22.844z" color="#000000" style="-inkscape-stroke:none"/>
   </g>
  </g>
  <g stroke-width="1px">
   <g transform="scale(1.0912 .91639)" fill="#4962ae" aria-label="S">
    <path d="m85.228 162.79c9.9885 4.4846 19.162 6.9308 29.354 6.9308 27.927 0 45.865-14.881 45.865-36.896 0-18.754-11.823-29.965-35.062-33.023l-15.9-2.0385c-15.288-2.0385-22.831-7.95-22.831-17.938 0-12.638 10.804-21.608 27.112-21.608 10.6 0 19.162 4.0769 23.442 10.396 4.2808 6.3192 3.0577 13.658 11.008 13.658 4.6884 0 7.5423-2.65 7.5423-7.3385v-1.0192l-1.4269-20.792c-.4077-5.3-1.0192-7.5423-8.1538-7.5423-4.4846 0-6.3192 1.2231-6.3192 5.0962-9.1731-3.6692-17.123-5.9115-25.277-5.9115-25.685 0-44.031 16.104-44.031 35.877 0 19.977 13.046 29.558 39.546 33.227l14.677 2.0385c12.638 1.8346 19.365 8.3577 19.365 18.754 0 12.231-11.212 21.608-28.946 21.608-14.269 0-24.665-5.7077-28.946-14.473-3.6692-7.3385-2.65-15.085-11.008-15.085-6.1154 0-7.7461 2.8538-7.7461 8.5615v2.0385l1.2231 23.035c.40769 7.1346 2.8538 10.396 8.5615 10.396 5.5038 0 7.3385-2.0385 7.95-7.95z"/>
   </g>
   <g transform="scale(1.0912 .91639)" fill="url(#linearGradient13241)" aria-label="S">
    <path d="m85.228 162.79c9.9885 4.4846 19.162 6.9308 29.354 6.9308 27.927 0 45.865-14.881 45.865-36.896 0-18.754-11.823-29.965-35.062-33.023l-15.9-2.0385c-15.288-2.0385-22.831-7.95-22.831-17.938 0-12.638 10.804-21.608 27.112-21.608 10.6 0 19.162 4.0769 23.442 10.396 4.2808 6.3192 3.0577 13.658 11.008 13.658 4.6884 0 7.5423-2.65 7.5423-7.3385v-1.0192l-1.4269-20.792c-.4077-5.3-1.0192-7.5423-8.1538-7.5423-4.4846 0-6.3192 1.2231-6.3192 5.0962-9.1731-3.6692-17.123-5.9115-25.277-5.9115-25.685 0-44.031 16.104-44.031 35.877 0 19.977 13.046 29.558 39.546 33.227l14.677 2.0385c12.638 1.8346 19.365 8.3577 19.365 18.754 0 12.231-11.212 21.608-28.946 21.608-14.269 0-24.665-5.7077-28.946-14.473-3.6692-7.3385-2.65-15.085-11.008-15.085-6.1154 0-7.7461 2.8538-7.7461 8.5615v2.0385l1.2231 23.035c.40769 7.1346 2.8538 10.396 8.5615 10.396 5.5038 0 7.3385-2.0385 7.95-7.95z"/>
   </g>
   <g transform="scale(1.0912 .91639)" fill="url(#pattern13210)" aria-label="S">
    <path d="m85.228 162.79c9.9885 4.4846 19.162 6.9308 29.354 6.9308 27.927 0 45.865-14.881 45.865-36.896 0-18.754-11.823-29.965-35.062-33.023l-15.9-2.0385c-15.288-2.0385-22.831-7.95-22.831-17.938 0-12.638 10.804-21.608 27.112-21.608 10.6 0 19.162 4.0769 23.442 10.396 4.2808 6.3192 3.0577 13.658 11.008 13.658 4.6884 0 7.5423-2.65 7.5423-7.3385v-1.0192l-1.4269-20.792c-.4077-5.3-1.0192-7.5423-8.1538-7.5423-4.4846 0-6.3192 1.2231-6.3192 5.0962-9.1731-3.6692-17.123-5.9115-25.277-5.9115-25.685 0-44.031 16.104-44.031 35.877 0 19.977 13.046 29.558 39.546 33.227l14.677 2.0385c12.638 1.8346 19.365 8.3577 19.365 18.754 0 12.231-11.212 21.608-28.946 21.608-14.269 0-24.665-5.7077-28.946-14.473-3.6692-7.3385-2.65-15.085-11.008-15.085-6.1154 0-7.7461 2.8538-7.7461 8.5615v2.0385l1.2231 23.035c.40769 7.1346 2.8538 10.396 8.5615 10.396 5.5038 0 7.3385-2.0385 7.95-7.95z"/>
   </g>
  </g>
 </g>
 <path d="m129.01 14.891c-69.603 1.1865-117.64 46.291-118 92.837 73.624 20.719 156.69 21.979 232.14-3.4641-6.468-51.788-60.41-90.289-114.15-89.373z" fill="url(#linearGradient13206)" fill-rule="evenodd"/>
 <g transform="translate(-242.88 14.876)" fill="none">
  <path transform="matrix(2 0 0 2 115.94 -131.94)" d="m91.469 126.97.4781 21.562h74.584" filter="url(#filter27770)" stroke="#fff" stroke-width="6"/>
  <path d="m297.88 122.5.95621 43.124h149.17" stroke="#000" stroke-width="5.8756"/>
 </g>
</svg>
