<svg width="64" height="64" version="1.1" viewBox="0 0 64 64" xmlns="http://www.w3.org/2000/svg"><g transform="translate(0 -988.36)"><g transform="matrix(.83333 0 0 .82353 783.15 1512.5)"><circle cx="-901.79" cy="-595.57" r="32" style="fill:#4c5263"/><path d="m-896.2-604.71c6.7952 1.6386 21.968 5.413 27.414 11.148-1.72 3.3803-4.9005 7.8668-10.666 9.9414 2.5669-9.3389-6.7472-14.4-16.747-21.089z" style="fill-rule:evenodd;fill:#ffffff"/><path d="m-899.16-579.99s-29.579-2.3854-33.396-4.1574c6.2022-10.973 17.256-30.261 19.775-43.918 4.0893 7.7696 7.0785 10.795 11.304 18.496.3608 4.1298 2.3172 29.579 2.3172 29.579z" style="fill-rule:evenodd;fill:#ffffff"/><path d="m-871.22-586.1c-11.174 11.209-38.356 11.605-56.212 9.6667 6.0313 8.0833 15.561 12.85 25.647 12.863 14.025-.00047 26.415-9.1334 30.566-22.53z" style="fill:#5294e2"/><path d="m-895.95-605.76-.85156 1.9473c5.0243 3.3607 9.8124 6.2959 12.922 9.416 3.1095 3.1201 4.5666 6.1906 3.3848 10.49l-.55273 2.0059 1.959-.70508c5.0792-2.215 10.3-6.9566 11.3-10.957-1-2-10.082-6.7968-13.843-8.1294-5.3882-1.888-10.915-3.2477-14.318-4.0684zm5.6016 3.6562c2.522.68495 5.2702 1.492 8.002 2.4492 4.9104 1.7206 9.95 3.6983 12.558 6.0923-1.5037 2.7397-4.0337 6.0226-8 8 .37689-4.0628-1.6628-7.4508-4.562-10.36-2.1657-2.1731-4.9978-4.172-7.998-6.1816z" style="block-progression:tb;color-rendering:auto;color:#000000;fill-rule:evenodd;fill:#4c5263;image-rendering:auto;isolation:auto;mix-blend-mode:normal;shape-rendering:auto;solid-color:#000000;text-decoration-color:#000000;text-decoration-line:none;text-decoration-style:solid;text-indent:0;text-transform:none;white-space:normal"/><path d="m-898.79-607.57c4.8193 9.9277 3.8236 18.75 1 26 3.9759.024 9.9638.46988 17-3-5.7832-13.205-18-23-18-23z" style="fill-rule:evenodd;fill:#ffffff"/><path transform="translate(-370.79 -986.57)" d="m-499.7 397.67c-4.6698 6.3155-13.29 9.5733-23.583 11.069-10.729 1.5588-23.151 1.0966-34.251.14843.53169.79386 1.1093 1.5635 1.7098 2.3066 10.686.84723 22.446 1.1935 32.852-.31836 8.6818-1.2614 16.536-3.824 21.916-8.582.58839-1.5332 1.0104-3.0181 1.3568-4.6234z" style="fill:#ffffff"/><path d="m-913.79-631.57-.062 3c-.67876 14.8-19.938 45-19.938 45l3.5455 1.1636c1.206.24119 2.6884.48255 4.3555.7207 3.334.47629 7.3981.94183 11.342 1.3516 7.8874.81947 15.291 1.416 15.291 1.416l1.2617.10156-.0977-1.2598c-1.4231-36.643.92788-20.928-12.698-46.494.0444.002-3-5-3-5zm1.5 6c3.3785 5.9195 5.8918 9.4641 9.5 16 .36349 4.2085 1.8459 25.997 2 28-1.0781-.0881-6.3285-.1639-13.535-.91259-3.9282-.40812-7.9742-.87048-11.26-1.3398-1.7054-.20498-5.2056-.74757-5.2056-.74757 5.9055-10.434 15.272-27.72 18.5-41z" style="block-progression:tb;color-rendering:auto;color:#000000;fill-rule:evenodd;fill:#4c5263;image-rendering:auto;isolation:auto;mix-blend-mode:normal;shape-rendering:auto;solid-color:#000000;text-decoration-color:#000000;text-decoration-line:none;text-decoration-style:solid;text-indent:0;text-transform:none;white-space:normal"/></g></g></svg>
