<svg width="10.625mm" height="10.19mm" version="1.1" viewBox="0 0 10.625 10.19" xmlns="http://www.w3.org/2000/svg">
  <!-- Steam and the Steam logo are trademarks and/or registered trademarks of Valve Corporation in the U.S. and/or other countries. -->
  <defs>
    <clipPath id="clipPath210">
      <path transform="translate(-59.633 -411.01)" d="m42.739 391.34h30.117v28.885h-30.117z"/>
    </clipPath>
  </defs>
  <g transform="translate(-154.78 -158.22)">
    <path transform="matrix(.35278 0 0 -.35278 160.74 161.47)" d="m0 0c-.299-.449-.459-.976-.458-1.516.001-.722.289-1.415.8-1.926.511-.51 1.204-.797 1.927-.797.539 0 1.066.16 1.515.46.448.299.798.725 1.004 1.224.206.498.26 1.047.155 1.576-.106.529-.366 1.014-.747 1.396-.382.381-.868.64-1.397.745s-1.078.05-1.576-.156c-.498-.207-.924-.557-1.223-1.006m5.281.501c.399-.597.611-1.299.611-2.017-.003-.961-.386-1.882-1.066-2.562-.681-.68-1.602-1.062-2.564-1.064-.718 0-1.419.213-2.016.612s-1.062.966-1.337 1.629c-.274.664-.346 1.394-.206 2.098s.486 1.35.994 1.858c.508.507 1.155.853 1.859.992.704.14 1.434.068 2.097-.208.663-.275 1.23-.74 1.628-1.338m-13.124-13.202-1.777.735c.258-.538.667-.988 1.176-1.297.51-.309 1.098-.463 1.694-.443.595.02 1.172.212 1.66.555.488.342.865.819 1.086 1.372.222.553.277 1.159.16 1.743s-.402 1.122-.819 1.547c-.418.425-.95.719-1.532.847s-1.189.083-1.746-.128l1.833-.76c.538-.24.961-.681 1.178-1.228.218-.548.212-1.158-.014-1.702s-.656-.977-1.198-1.209c-.541-.231-1.152-.241-1.701-.029zm19.685 17.804h-.257v.459h.26c.2 0 .269-.089.269-.218 0-.034-.008-.068-.022-.099-.015-.031-.035-.059-.061-.081-.026-.023-.056-.04-.088-.051-.033-.01-.067-.014-.101-.01m.491.244c0 .199-.108.389-.478.389h-.482v-1.384h.203v.548h.298l.278-.548h.247l-.316.612c.074.032.137.086.182.154.044.068.068.148.068.229m-1.471-.98c-.132.193-.204.42-.208.654h-.012c-.006.159.02.317.078.465.058.149.146.283.258.396.113.113.247.201.395.259.148.059.307.086.466.08.233 0 .462-.069.656-.199.195-.129.346-.313.436-.529.091-.215.115-.453.071-.682-.045-.229-.156-.44-.32-.606-.164-.167-.374-.281-.603-.328-.228-.048-.466-.026-.683.061-.216.087-.402.236-.534.429m2.132-.121c.154.229.237.499.238.775.006.185-.026.369-.094.541s-.17.329-.301.46c-.13.131-.286.234-.458.304-.171.069-.355.102-.54.098-.276 0-.546-.081-.776-.234s-.41-.37-.516-.625-.135-.535-.082-.806.185-.52.38-.716c.194-.196.443-.33.713-.385.271-.055.552-.028.807.077.255.104.474.282.629.511m-25.289 1.137c2.667 2.462 6.162 3.829 9.791 3.831l.007-.023c2.687.001 5.321-.748 7.605-2.163 2.285-1.414 4.13-3.438 5.327-5.844s1.699-5.098 1.45-7.773c-.25-2.676-1.24-5.229-2.861-7.372s-3.808-3.791-6.315-4.759c-2.507-.969-5.234-1.218-7.874-.721-2.641.497-5.091 1.721-7.074 3.535-1.983 1.813-3.421 4.144-4.151 6.73l5.535-2.29c.202-.992.766-1.874 1.581-2.475.815-.6 1.824-.877 2.831-.777 1.008.101 1.942.572 2.622 1.321.681.75 1.059 1.726 1.061 2.739v.193l4.908 3.502h.114c1.078 0 2.131.32 3.026.918.896.599 1.594 1.45 2.007 2.445.412.995.52 2.09.31 3.147-.211 1.057-.729 2.027-1.491 2.789s-1.732 1.28-2.789 1.491c-1.057.21-2.152.102-3.147-.31-.995-.413-1.846-1.111-2.445-2.007-.598-.895-.918-1.948-.918-3.026v-.057l-3.442-4.987h-.228c-.821 0-1.623-.248-2.299-.713l-7.74 3.202c.291 3.617 1.933 6.993 4.599 9.454" clip-path="url(#clipPath210)" style="fill-rule:evenodd;fill:#ffffff"/>
  </g>
</svg>
