<svg width="64" height="64" version="1.1" xmlns="http://www.w3.org/2000/svg"><g transform="matrix(.66188 0 0 -.66188 1.9997 62)"><path d="m90.652 45.325c0-25.032-20.293-45.325-45.326-45.325s-45.326 20.293-45.326 45.325c0 25.033 20.293 45.326 45.326 45.326s45.326-20.293 45.326-45.326" fill="#e13f20"/><path d="m57.711 66.78c2.8946-1.6719 6.5938-.6817 8.2637 2.2129 1.6719 2.8945.6816 6.5937-2.2129 8.2656-2.8945 1.6699-6.5937.6777-8.2656-2.2168-1.67-2.892-.678-6.591 2.215-8.261zm-12.385-39.132c-2.6602 0-5.1836.5918-7.4453 1.6446l-4.2051-7.5352c3.5117-1.7402 7.4668-2.7226 11.65-2.7226 2.4336 0 4.7871.3378 7.0234.957.3945 2.4316 1.8379 4.6699 4.1387 6 2.2988 1.3262 4.9551 1.457 7.2558.5879 4.4747 4.4004 7.3868 10.385 7.8106 17.051l-8.625.1269c-.793-9.031-8.37-16.11-17.604-16.11zm0 35.354c9.2343 0 16.81-7.08 17.605-16.109l8.6231.1269c-.4238 6.666-3.3359 12.65-7.8106 17.051-2.3007-.8691-4.9589-.7363-7.2558.5879-2.3008 1.3281-3.7442 3.5684-4.1387 6-2.2363.6172-4.5898.9551-7.0234.9551-4.1836 0-8.1387-.9825-11.65-2.7207l4.2051-7.5352c2.2617 1.0527 4.7851 1.6445 7.4453 1.6445zm-17.676-17.677c0 5.9805 2.9707 11.264 7.5156 14.463l-4.4238 7.4102c-5.2949-3.5391-9.2344-8.9473-10.871-15.281 1.9101-1.5586 3.1328-3.9316 3.1328-6.5918 0-2.6586-1.2227-5.0316-3.1328-6.5902 1.6348-6.336 5.5742-11.744 10.871-15.283l4.4238 7.4121c-4.545 3.198-7.516 8.481-7.516 14.461zm30.063-21.452c-2.8945-1.6718-3.8867-5.371-2.2149-8.2636 1.67-2.8946 5.3692-3.8867 8.2637-2.2149 2.8945 1.67 3.8867 5.3692 2.2149 8.2637-1.67 2.8926-5.3711 3.8848-8.2637 2.2148zm-43.207 27.504c-3.3438 0-6.0528-2.7089-6.0528-6.0527 0-3.3422 2.709-6.0512 6.0528-6.0512 3.3418 0 6.0507 2.709 6.0507 6.0512 0 3.3438-2.7089 6.0527-6.0507 6.0527" fill="#ffffff"/></g></svg>
