<svg width="256px" height="211px" preserveAspectRatio="xMidYMid" version="1.1" viewBox="0 0 256 211" xmlns="http://www.w3.org/2000/svg">
  <path d="m128.02 0c-22.032.046783-43.493 7.0073-61.359 19.9l23.903 23.903c11.277-6.8986 24.236-10.56 37.456-10.582 39.772-7.86e-5 72.014 32.242 72.014 72.014-.031827 13.215-3.6996 26.167-10.602 37.437l23.948 23.948c12.889-17.876 19.84-39.347 19.874-61.385 0-58.12-47.115-105.23-105.23-105.23h1e-6z" fill="#ABC2AB"/>
  <path d="m189.38 190.57-23.903-23.903c-11.277 6.8986-24.236 10.56-37.456 10.582-39.772 7.9e-5-72.014-32.242-72.014-72.014.031827-13.215 3.6995-26.167 10.602-37.437l-23.948-23.948c-12.889 17.876-19.84 39.347-19.874 61.385 0 58.12 47.115 105.23 105.23 105.23 22.032-.046797 43.493-7.0073 61.359-19.9z" fill="#478061"/>
  <circle cx="128" cy="105.23" r="33.503" fill="#ABC2AB"/>
</svg>
