<?xml version="1.0" encoding="UTF-8" standalone="no"?>
<svg
   width="32"
   height="32"
   viewBox="0 0 30 30.000001"
   version="1.1"
   id="svg6"
   sodipodi:docname="mastodon.svg"
   inkscape:version="1.2.1 (9c6d41e410, 2022-07-14, custom)"
   xmlns:inkscape="http://www.inkscape.org/namespaces/inkscape"
   xmlns:sodipodi="http://sodipodi.sourceforge.net/DTD/sodipodi-0.dtd"
   xmlns="http://www.w3.org/2000/svg"
   xmlns:svg="http://www.w3.org/2000/svg">
  <defs
     id="defs10" />
  <sodipodi:namedview
     id="namedview8"
     pagecolor="#ffffff"
     bordercolor="#666666"
     borderopacity="1.0"
     inkscape:showpageshadow="2"
     inkscape:pageopacity="0.0"
     inkscape:pagecheckerboard="0"
     inkscape:deskcolor="#d1d1d1"
     inkscape:document-units="mm"
     showgrid="false"
     inkscape:zoom="8.2997586"
     inkscape:cx="6.7471842"
     inkscape:cy="10.000291"
     inkscape:window-width="1280"
     inkscape:window-height="1371"
     inkscape:window-x="0"
     inkscape:window-y="0"
     inkscape:window-maximized="0"
     inkscape:current-layer="svg6" />
  <path
     d="m 29.997623,30.002163 c -9.010734,-0.01801 -20.6932069,0.003 -29.9952496,0.003 l 0.00465,-30.01032525 H 29.997627 Z"
     id="path5"
     style="fill:#01ff46;fill-opacity:1;stroke-width:0.9375"
     inkscape:connector-curvature="0"
     sodipodi:nodetypes="ccccc" />
  <path
     fill="#2b90d9"
     d="m 24.388252,17.122322 c -0.288285,1.48311 -2.581992,3.106229 -5.216318,3.420794 -1.373687,0.163909 -2.726191,0.314565 -4.16841,0.248412 -2.358614,-0.108064 -4.219723,-0.562977 -4.219723,-0.562977 0,0.229609 0.01416,0.448229 0.04248,0.652691 0.306635,2.32769 2.308093,2.467131 4.203978,2.532151 1.913556,0.06547 3.61744,-0.47179 3.61744,-0.47179 l 0.07861,1.729937 c 0,0 -1.338458,0.71873 -3.722786,0.850922 -1.314781,0.07227 -2.947301,-0.03308 -4.848737,-0.536357 C 6.0308914,23.894586 5.3216761,19.49872 5.2131586,15.0384 c -0.033076,-1.324299 -0.012687,-2.573043 -0.012687,-3.617439 0,-4.5609082 2.98831,-5.8977808 2.98831,-5.8977808 C 9.6955671,4.8311828 12.281071,4.5401791 14.968975,4.5182037 h 0.06604 c 2.687905,0.021975 5.275108,0.3129791 6.78178,1.0049765 0,0 2.988197,1.3368726 2.988197,5.8977808 0,0 0.03749,3.365062 -0.416739,5.701361"
     id="path2"
     style="fill:#000000;fill-opacity:1;stroke-width:0.0906201" />
  <path
     fill="#ffffff"
     d="m 21.280198,11.774786 v 5.5225 H 19.09229 V 11.93711 c 0,-1.129919 -0.475416,-1.703431 -1.42636,-1.703431 -1.051419,0 -1.578375,0.680331 -1.578375,2.025585 v 2.933938 H 13.91256 v -2.933938 c 0,-1.345254 -0.527069,-2.025585 -1.578489,-2.025585 -0.950944,0 -1.426359,0.573512 -1.426359,1.703431 v 5.360176 H 8.7198029 v -5.5225 c 0,-1.128672 0.2873789,-2.0255842 0.8646287,-2.6891497 0.5952614,-0.6635654 1.3748204,-1.0037305 2.3425294,-1.0037305 1.119611,0 1.967475,0.4303321 2.528073,1.2911094 l 0.544967,0.9135638 0.54508,-0.9135638 c 0.560485,-0.8607773 1.408349,-1.2911094 2.528073,-1.2911094 0.967596,0 1.747155,0.3401651 2.342529,1.0037305 0.577136,0.6635655 0.864515,1.5604777 0.864515,2.6891497"
     id="path4"
     style="fill:#01ff46;fill-opacity:1;stroke-width:0.0906201" />
</svg>
