<?xml version="1.0" encoding="UTF-8" standalone="no"?>
<!-- Generator: Adobe Illustrator 13.0.0, SVG Export Plug-In . SVG Version: 6.00 Build 14576)  -->

<svg
   xmlns:dc="http://purl.org/dc/elements/1.1/"
   xmlns:cc="http://creativecommons.org/ns#"
   xmlns:rdf="http://www.w3.org/1999/02/22-rdf-syntax-ns#"
   xmlns:svg="http://www.w3.org/2000/svg"
   xmlns="http://www.w3.org/2000/svg"
   xmlns:sodipodi="http://sodipodi.sourceforge.net/DTD/sodipodi-0.dtd"
   xmlns:inkscape="http://www.inkscape.org/namespaces/inkscape"
   version="1.1"
   id="Layer_1"
   x="0px"
   y="0px"
   width="336.80701"
   height="336.80701"
   viewBox="0 0 336.807 336.807"
   enable-background="new 0 0 789.322 336.807"
   xml:space="preserve"
   sodipodi:docname="matrix.svg"
   inkscape:version="0.92.2 2405546, 2018-03-11"><metadata
   id="metadata23"><rdf:RDF><cc:Work
       rdf:about=""><dc:format>image/svg+xml</dc:format><dc:type
         rdf:resource="http://purl.org/dc/dcmitype/StillImage" /><dc:title /></cc:Work></rdf:RDF></metadata><defs
   id="defs21" /><sodipodi:namedview
   pagecolor="#ffffff"
   bordercolor="#666666"
   borderopacity="1"
   objecttolerance="10"
   gridtolerance="10"
   guidetolerance="10"
   inkscape:pageopacity="0"
   inkscape:pageshadow="2"
   inkscape:window-width="1920"
   inkscape:window-height="1011"
   id="namedview19"
   showgrid="false"
   inkscape:zoom="1"
   inkscape:cx="401.02551"
   inkscape:cy="223.05419"
   inkscape:window-x="0"
   inkscape:window-y="0"
   inkscape:window-maximized="1"
   inkscape:current-layer="layer2" />








<g
   inkscape:groupmode="layer"
   id="layer2"
   inkscape:label="background"><rect
     style="opacity:1;vector-effect:none;fill:#01ff46;fill-opacity:1;fill-rule:evenodd;stroke:none;stroke-width:1.88976383;stroke-linecap:butt;stroke-linejoin:miter;stroke-miterlimit:4;stroke-dasharray:none;stroke-dashoffset:0;stroke-opacity:1"
     id="rect835"
     width="336.80701"
     height="336.80701"
     x="0"
     y="0"
     ry="0" /></g><g
   inkscape:groupmode="layer"
   id="layer3"
   inkscape:label="brackets"
   style="display:none"><path
     style="display:inline"
     d="M 8.876,7.7100064 V 329.096 h 23.13 v 7.711 H 0 V 6.328125e-6 H 32.006 V 7.7100064 Z"
     id="path2"
     inkscape:connector-curvature="0" /><path
     style="display:inline"
     d="M 328.444,329.096 V 7.7100064 h -23.13 V 6.328125e-6 h 32.008 V 336.807 h -32.008 v -7.711 z"
     id="path16"
     inkscape:connector-curvature="0" /></g><g
   inkscape:groupmode="layer"
   id="layer1"
   inkscape:label="logo"
   style="display:inline"><path
     d="m 107.761,109.59401 v 16.264 h 0.463 c 4.338,-6.191 9.563,-10.998 15.684,-14.406 6.117,-3.402 13.129,-5.11 21.027,-5.11 7.588,0 14.521,1.475 20.793,4.415 6.274,2.945 11.038,8.131 14.291,15.567 3.56,-5.265 8.4,-9.913 14.521,-13.94 6.117,-4.025 13.358,-6.042 21.724,-6.042 6.351,0 12.234,0.776 17.66,2.325 5.418,1.549 10.065,4.027 13.938,7.434 3.869,3.41 6.889,7.863 9.062,13.357 2.167,5.504 3.253,12.122 3.253,19.869 v 80.385 h -32.993 v -68.074 c 0,-4.025 -0.154,-7.82 -0.465,-11.385 -0.313,-3.56 -1.161,-6.656 -2.555,-9.293 -1.395,-2.631 -3.45,-4.724 -6.157,-6.274 -2.711,-1.543 -6.391,-2.322 -11.037,-2.322 -4.646,0 -8.403,0.896 -11.269,2.671 -2.868,1.784 -5.112,4.109 -6.737,6.971 -1.626,2.869 -2.711,6.12 -3.252,9.762 -0.545,3.638 -0.814,7.318 -0.814,11.035 v 66.91 h -32.991 v -67.375 c 0,-3.562 -0.081,-7.087 -0.23,-10.57 -0.158,-3.487 -0.814,-6.7 -1.978,-9.645 -1.162,-2.94 -3.099,-5.304 -5.809,-7.088 -2.711,-1.775 -6.699,-2.671 -11.965,-2.671 -1.551,0 -3.603,0.349 -6.156,1.048 -2.556,0.697 -5.036,2.016 -7.435,3.949 -2.404,1.938 -4.454,4.726 -6.158,8.363 -1.705,3.642 -2.556,8.402 -2.556,14.287 v 69.701 H 76.630003 v -120.118 z"
     id="path4"
     inkscape:connector-curvature="0" /></g></svg>